<svg id="Layer_1" data-name="Layer 1" xmlns="http://www.w3.org/2000/svg" viewBox="0 0 863.72 389.85"><defs><style>.cls-1{fill:#7d5ba6;}.cls-2{fill:#595959;}</style></defs><title>menlohacks</title><path class="cls-1" d="M102.61,301.89,64.3,353H59.93L22.46,301.72v85.53H.28V269.62H25.82l36.8,50.58,36.8-50.58h25.37V387.25H102.61Z" transform="translate(-0.28 -0.08)"/><path class="cls-1" d="M153.2,353c1.34,10.25,10.25,17.64,24.7,17.64,7.56,0,17.48-2.86,22.18-7.73l13.11,12.94c-8.74,9.07-23,13.44-35.62,13.44C149,389.26,132,371.62,132,345.07c0-25.2,17.14-43.35,44-43.35,27.72,0,45,17.14,41.84,51.25Zm45-17c-1.34-10.75-9.74-16.13-21.51-16.13-11.09,0-20.16,5.38-23.19,16.13Z" transform="translate(-0.28 -0.08)"/><path class="cls-1" d="M286.28,387.08V343.73c0-12.6-6.89-22.18-20-22.18-12.6,0-21.17,10.59-21.17,23.19v42.34H224.78v-83H243.1l1.35,11.26c8.4-8.23,16.8-12.43,27.22-12.43,19.49,0,35.12,14.62,35.12,40.66v43.52Z" transform="translate(-0.28 -0.08)"/><path class="cls-1" d="M336.36,269.62V387.08H316V269.62Z" transform="translate(-0.28 -0.08)"/><path class="cls-1" d="M428.27,345.74c0,23.86-16.3,43.18-43.18,43.18s-43-19.32-43-43.18c0-23.69,16.47-43.18,42.85-43.18S428.27,322,428.27,345.74Zm-65.7,0c0,12.6,7.56,24.36,22.52,24.36s22.52-11.76,22.52-24.36c0-12.43-8.74-24.53-22.52-24.53C370.3,321.21,362.57,333.31,362.57,345.74Z" transform="translate(-0.28 -0.08)"/><path class="cls-2" d="M515.65,387.25V339.69h-57.8v47.55H435.67V269.62h22.18v49.57h57.8V269.62h22V387.25Z" transform="translate(-0.28 -0.08)"/><path class="cls-2" d="M614.29,304.24H634v82.84H614.63l-1-12.1c-4.71,9.75-17.64,14.45-26.89,14.62-24.53.17-42.68-15-42.68-44,0-28.57,19-43.52,43.18-43.35,11.09,0,21.67,5.21,26.38,13.44Zm-49.74,41.34c0,15.8,10.92,25.2,24.53,25.2,32.26,0,32.26-50.24,0-50.24C575.48,320.54,564.56,329.78,564.56,345.57Z" transform="translate(-0.28 -0.08)"/><path class="cls-2" d="M715.79,376.49c-9.57,9.41-19.66,13.11-31.92,13.11-24,0-44-14.45-44-43.86s20-43.86,44-43.86c11.76,0,20.84,3.36,29.91,12.27l-12.94,13.61a25.16,25.16,0,0,0-16.63-6.55c-13.78,0-23.86,10.08-23.86,24.53,0,15.8,10.75,24.2,23.53,24.2,6.55,0,13.11-1.85,18.15-6.89Z" transform="translate(-0.28 -0.08)"/><path class="cls-2" d="M736.46,269.62v67.88l27.89-33.27h24.53v1.18l-33.78,37.81,38.48,42.34v1.51h-24.7l-32.43-37.47v37.47H716V269.62Z" transform="translate(-0.28 -0.08)"/><path class="cls-2" d="M848.71,326.25c-5.88-5.55-12.6-7.39-20.5-7.39-9.74,0-15.12,3-15.12,8.23,0,5.38,4.87,8.4,15.46,9.07,15.62,1,35.45,4.54,35.45,26.55,0,14.62-11.93,27.22-35.62,27.22-13.11,0-26.21-2.18-38.31-14.79l10.08-14.62c5.88,6.55,19.32,11.43,28.56,11.59,7.73.17,15-3.87,15-9.91,0-5.71-4.71-8.06-16.47-8.74-15.62-1.18-34.28-6.89-34.28-25.71,0-19.15,19.83-25.88,35-25.88,12.94,0,22.68,2.52,32.26,10.92Z" transform="translate(-0.28 -0.08)"/><path class="cls-2" d="M469.7,248.91V199.51H386.43v49.39H351.65V80.57l34.78,43.21v41H469.7v-41l34.78-43.21V248.91Z" transform="translate(-0.28 -0.08)"/><polygon class="cls-1" points="547.76 217.84 547.76 0 512.99 0 427.79 103.98 342.59 0 307.81 0 307.81 217.84 274.55 217.84 274.55 248.83 307.81 248.83 341.89 248.83 341.89 217.84 341.89 53.9 427.79 158.92 513.68 53.9 513.68 248.83 514.09 248.83 547.76 248.83 581.43 248.83 581.43 217.84 547.76 217.84"/></svg>